<svg width="80" height="26" viewBox="0 0 80 26" fill="none" xmlns="http://www.w3.org/2000/svg">
<path fill-rule="evenodd" clip-rule="evenodd" d="M0 6.5C0 2.91015 2.91015 0 6.5 0H73.125C76.7149 0 79.625 2.91015 79.625 6.5V19.5C79.625 23.0899 76.7149 26 73.125 26H6.5C2.91015 26 0 23.0899 0 19.5V6.5ZM49.6136 12.3603V11.3853H50.714V9.3099H51.8561V11.3853H53.0958V12.3603H51.8561V16.5945C51.8561 16.9149 51.8561 17.2353 52.3158 17.2353C52.5665 17.2353 52.7893 17.1795 53.0261 17.096V18.071C52.65 18.1545 52.274 18.2103 51.8979 18.2103C50.714 18.2103 50.714 17.6531 50.714 16.901V12.3603H49.6136ZM46.0295 14.6706L43.9959 18.0413H45.2634L46.6841 15.7013L48.0631 18.0413H49.3584L47.3249 14.6706L49.3584 11.3835H48.0631L46.6841 13.6538L45.3888 11.3835H44.0934L46.0295 14.6706ZM43.3778 14.961H38.3217C38.3217 16.2842 39.0182 17.3149 40.3275 17.3149C41.3303 17.3149 41.9432 16.8135 42.1939 15.8245L43.3221 15.9638C42.8903 17.4542 41.7621 18.2063 40.2857 18.2063C38.2521 18.2481 37.096 16.6603 37.096 14.766C37.096 12.607 38.1128 11.2142 40.2717 11.2142C42.361 11.2142 43.3778 12.7324 43.3778 14.6963V14.961ZM38.3217 14.0695H42.1521C42.0128 12.9831 41.4 12.1056 40.1464 12.1056C39.0321 12.1056 38.3914 13.0528 38.3217 14.0695ZM27.8031 8.125V18.0421H29.0288V10.2282H29.0566L34.3216 18.0421H35.6309V8.125H34.4052V15.9529H34.3773L29.1263 8.125H27.8031Z" fill="#2FC14F"/>
</svg>
