<svg width="74" height="24" viewBox="0 0 74 24" fill="none" xmlns="http://www.w3.org/2000/svg">
<path fill-rule="evenodd" clip-rule="evenodd" d="M0 6C0 2.68629 2.68629 0 6 0H68C71.3137 0 74 2.68629 74 6V18C74 21.3137 71.3137 24 68 24H6C2.68629 24 0 21.3137 0 18V6ZM45.7968 11.4086V10.5086H46.8126V8.59286H47.8668V10.5086H49.0111V11.4086H47.8668V15.3171C47.8668 15.6129 47.8668 15.9086 48.2911 15.9086C48.5226 15.9086 48.7283 15.8571 48.9468 15.78V16.68C48.5997 16.7571 48.2526 16.8086 47.9054 16.8086C46.8126 16.8086 46.8126 16.2943 46.8126 15.6V11.4086H45.7968ZM42.4885 13.5431L40.6113 16.6545H41.7813L43.0928 14.4945L44.3656 16.6545H45.5613L43.6842 13.5431L45.5613 10.5088H44.3656L43.0928 12.6045L41.897 10.5088H40.7013L42.4885 13.5431ZM40.0408 13.8121H35.3736C35.3736 15.0335 36.0165 15.9849 37.225 15.9849C38.1508 15.9849 38.7165 15.5221 38.9479 14.6092L39.9893 14.7378C39.5908 16.1135 38.5493 16.8078 37.1865 16.8078C35.3093 16.8464 34.2422 15.3807 34.2422 13.6321C34.2422 11.6392 35.1808 10.3535 37.1736 10.3535C39.1022 10.3535 40.0408 11.7549 40.0408 13.5678V13.8121ZM35.3736 12.9892H38.9093C38.7808 11.9864 38.215 11.1764 37.0579 11.1764C36.0293 11.1764 35.4379 12.0507 35.3736 12.9892ZM25.6641 7.5V16.6543H26.7955V9.44143H26.8212L31.6812 16.6543H32.8898V7.5H31.7583V14.7257H31.7326L26.8855 7.5H25.6641Z" fill="#FB5812"/>
</svg>
