<svg width="74" height="24" viewBox="0 0 74 24" fill="none" xmlns="http://www.w3.org/2000/svg">
<path fill-rule="evenodd" clip-rule="evenodd" d="M0 6C0 2.68629 2.68629 0 6 0H68C71.3137 0 74 2.68629 74 6V18C74 21.3137 71.3137 24 68 24H6C2.68629 24 0 21.3137 0 18V6ZM55.8438 14.6349L56.9752 14.4935C56.9752 15.6378 57.8752 15.9849 58.7238 15.9849C59.2123 15.9849 60.0995 15.8307 60.0995 14.9307C60.0995 14.2517 59.3096 14.0994 58.4308 13.9299C57.3293 13.7175 56.088 13.4781 56.088 12.1407C56.088 10.8935 57.3095 10.3535 58.4023 10.3535C59.238 10.3535 61.038 10.7778 61.038 12.3592L59.9837 12.5007C59.9837 11.6007 59.2509 11.1764 58.4538 11.1764C57.888 11.1764 57.1423 11.3435 57.1423 12.0892C57.1423 12.687 57.9001 12.844 58.7631 13.0227C59.9049 13.2592 61.2309 13.5339 61.2309 14.9178C61.2309 16.2164 59.9066 16.8078 58.5695 16.8078C57.2195 16.8078 55.9852 16.1907 55.8438 14.6349ZM54.6414 16.6543V10.5086H53.5871V14.2114C53.5871 15.2014 52.9186 15.8314 51.9414 15.8314C51.1828 15.8314 50.6428 15.4329 50.6428 14.5586V10.5086H49.5886V14.5586C49.5886 16.2686 50.5271 16.8086 51.7614 16.8086C52.5586 16.8086 53.1628 16.4486 53.5614 15.8314H53.5871V16.6543H54.6414ZM42.3232 13.5807C42.3232 11.7164 43.4547 10.3535 45.3318 10.3535C47.209 10.3535 48.3404 11.7164 48.3404 13.5807C48.3404 15.4449 47.209 16.8078 45.3318 16.8078C43.4547 16.8078 42.3232 15.4449 42.3232 13.5807ZM43.4547 13.5807C43.4547 14.5964 43.8147 15.9849 45.3318 15.9849C46.849 15.9849 47.209 14.5964 47.209 13.5807C47.209 12.5649 46.849 11.1764 45.3318 11.1764C43.8147 11.1764 43.4547 12.5649 43.4547 13.5807ZM40.0469 10.5086V16.6543H41.1012V10.5086H40.0469ZM40.0469 7.5V8.70857H41.1012V7.5H40.0469ZM35.9526 16.6543L33.6898 10.5086H34.7826L36.4284 15.0857H36.4541L38.0355 10.5086H39.1155L36.9426 16.6543H35.9526ZM28.4488 13.8121H33.116V13.5678C33.116 11.7549 32.1774 10.3535 30.2488 10.3535C28.256 10.3535 27.3174 11.6392 27.3174 13.6321C27.3174 15.3807 28.3845 16.8464 30.2617 16.8078C31.6245 16.8078 32.666 16.1135 33.0645 14.7378L32.0231 14.6092C31.7917 15.5221 31.226 15.9849 30.3002 15.9849C29.0917 15.9849 28.4488 15.0335 28.4488 13.8121ZM31.9845 12.9892H28.4488C28.5131 12.0507 29.1045 11.1764 30.1331 11.1764C31.2902 11.1764 31.856 11.9864 31.9845 12.9892ZM23.4092 16.6555V10.5098H24.4635V11.564H24.4892C24.9906 10.7283 25.5949 10.4326 26.662 10.4326V11.5898C26.4563 11.5769 26.1349 11.564 25.9549 11.564C24.9392 11.564 24.4635 12.5026 24.4635 13.2098V16.6555H23.4092ZM15.4141 7.5V16.6543H16.6226V12.7457H19.8883C21.0712 12.7457 22.3826 11.9229 22.3826 10.1357C22.3826 8.14286 21.0969 7.5 19.9912 7.5H15.4141ZM16.6226 11.6914V8.55429H19.5926C20.7112 8.55429 21.1741 9.10714 21.1741 10.1229C21.1741 11.2286 20.4669 11.6914 19.4255 11.6914H16.6226Z" fill="#AFADAD"/>
</svg>
